<?xml version="1.0" encoding="UTF-8" standalone="no"?>
<!-- Generator: Adobe Illustrator 15.0.2, SVG Export Plug-In  -->

<svg
   xmlns:dc="http://purl.org/dc/elements/1.1/"
   xmlns:cc="http://creativecommons.org/ns#"
   xmlns:rdf="http://www.w3.org/1999/02/22-rdf-syntax-ns#"
   xmlns:svg="http://www.w3.org/2000/svg"
   xmlns="http://www.w3.org/2000/svg"
   xmlns:sodipodi="http://sodipodi.sourceforge.net/DTD/sodipodi-0.dtd"
   xmlns:inkscape="http://www.inkscape.org/namespaces/inkscape"
   version="1.1"
   x="0px"
   y="0px"
   width="30px"
   height="30px"
   viewBox="-2.5 -2.5 30 30"
   overflow="visible"
   enable-background="new -2.5 -2.5 30 30"
   xml:space="preserve"
   id="svg2"
   inkscape:version="0.48.4 r9939"
   sodipodi:docname="Comment.svg"><metadata
     id="metadata16"><rdf:RDF><cc:Work
         rdf:about=""><dc:format>image/svg+xml</dc:format><dc:type
           rdf:resource="http://purl.org/dc/dcmitype/StillImage" /></cc:Work></rdf:RDF></metadata><sodipodi:namedview
     pagecolor="#ffffff"
     bordercolor="#666666"
     borderopacity="1"
     objecttolerance="10"
     gridtolerance="10"
     guidetolerance="10"
     inkscape:pageopacity="0"
     inkscape:pageshadow="2"
     inkscape:window-width="753"
     inkscape:window-height="480"
     id="namedview14"
     showgrid="false"
     inkscape:zoom="7.8666667"
     inkscape:cx="-0.1906779"
     inkscape:cy="15"
     inkscape:window-x="1108"
     inkscape:window-y="426"
     inkscape:window-maximized="0"
     inkscape:current-layer="svg2" /><defs
     id="defs4" /><g
     id="g6"
     style="fill:#2980b9;fill-opacity:1"><path
       d="m 13,12.942 -1,0 0,-3.69 1,0 z"
       inkscape:connector-curvature="0"
       sodipodi:nodetypes="ccccc"
       id="path3031"
       style="fill:#2980b9;fill-opacity:1" /></g><g
     id="g10"
     style="fill:#2980b9;fill-opacity:1"><path
       style="font-size:medium;font-style:normal;font-variant:normal;font-weight:normal;font-stretch:normal;text-indent:0;text-align:start;text-decoration:none;line-height:normal;letter-spacing:normal;word-spacing:normal;text-transform:none;direction:ltr;block-progression:tb;writing-mode:lr-tb;text-anchor:start;baseline-shift:baseline;color:#000000;fill-opacity:1;fill-rule:nonzero;stroke:none;stroke-width:1;marker:none;visibility:visible;display:inline;overflow:visible;enable-background:accumulate;font-family:Sans;-inkscape-font-specification:Sans;fill:#2980b9"
       d="m -0.5,-0.5 0,0.5 0,19.25 0,0.5 0.5,0 6.15625,0 5.25,5.59375 0.875,0.9375 0,-1.28125 -0.03125,-5.25 12.75,0 0.5,0 0,-0.5 0,-19.25 0,-0.5 -0.5,0 -25,0 -0.5,0 z m 1,1 24,0 0,18.25 -12.75,0 -0.5,0 0,0.5 0.03125,4.46875 L 6.75,18.90625 6.59375,18.75 6.375,18.75 0.5,18.75 0.5,0.5 z m 12,1.78125 -0.4375,0.75 -0.875,1.5 -5.125,8.9375 -0.875,1.5 -0.4375,0.75 0.875,0 1.71875,0 10.3125,0 1.71875,0 0.875,0 -0.4375,-0.75 -0.875,-1.5 -5.125,-8.9375 -0.875,-1.5 -0.4375,-0.75 z m 0,2 0.4375,0.75 5.15625,8.9375 0.40625,0.75 -0.84375,0 -10.3125,0 -0.84375,0 0.40625,-0.75 5.15625,-8.9375 0.4375,-0.75 z"
       id="path12"
       inkscape:connector-curvature="0" /></g></svg>