<?xml version="1.0" encoding="UTF-8" standalone="no"?>
<!-- Generator: Adobe Illustrator 15.0.2, SVG Export Plug-In  -->

<svg
   xmlns:dc="http://purl.org/dc/elements/1.1/"
   xmlns:cc="http://creativecommons.org/ns#"
   xmlns:rdf="http://www.w3.org/1999/02/22-rdf-syntax-ns#"
   xmlns:svg="http://www.w3.org/2000/svg"
   xmlns="http://www.w3.org/2000/svg"
   xmlns:sodipodi="http://sodipodi.sourceforge.net/DTD/sodipodi-0.dtd"
   xmlns:inkscape="http://www.inkscape.org/namespaces/inkscape"
   version="1.1"
   x="0px"
   y="0px"
   width="30px"
   height="30px"
   viewBox="-3.518 -2.5 30 30"
   overflow="visible"
   enable-background="new -3.518 -2.5 30 30"
   xml:space="preserve"
   id="svg3035"
   inkscape:version="0.48.4 r9939"
   sodipodi:docname="coordinates-w.svg"><metadata
     id="metadata3045"><rdf:RDF><cc:Work
         rdf:about=""><dc:format>image/svg+xml</dc:format><dc:type
           rdf:resource="http://purl.org/dc/dcmitype/StillImage" /></cc:Work></rdf:RDF></metadata><sodipodi:namedview
     pagecolor="#ffffff"
     bordercolor="#666666"
     borderopacity="1"
     objecttolerance="10"
     gridtolerance="10"
     guidetolerance="10"
     inkscape:pageopacity="0"
     inkscape:pageshadow="2"
     inkscape:window-width="753"
     inkscape:window-height="480"
     id="namedview3043"
     showgrid="false"
     inkscape:zoom="7.8666667"
     inkscape:cx="-7.3728813"
     inkscape:cy="15"
     inkscape:window-x="65"
     inkscape:window-y="24"
     inkscape:window-maximized="0"
     inkscape:current-layer="svg3035" /><defs
     id="defs3037" /><path
     d="M11.376,18.626l0.817-1.497l4.751-8.711c0.44-0.809,0.69-1.735,0.69-2.721C17.635,2.55,15.085,0,11.938,0  C8.793,0,6.242,2.55,6.242,5.697c0,0.981,0.248,1.904,0.685,2.71L11.376,18.626z M11.938,1.702c2.203,0,3.996,1.792,3.996,3.996  c0,0.676-0.163,1.318-0.483,1.906l-2.925,5.362l-0.978,1.793l-3.062-7.03L8.457,7.661L8.423,7.597  C8.104,7.009,7.943,6.37,7.943,5.697C7.943,3.494,9.735,1.702,11.938,1.702z"
     id="path3039"
     style="fill:#ffffff;fill-opacity:1" /><polygon
     points="22.965,18.151 22.26,16.603 18.702,18.223 14.562,16.338 13.745,17.836 16.648,19.158 11.482,21.51 6.316,19.158   9.183,17.852 8.504,16.291 4.263,18.223 0.705,16.603 0,18.151 2.209,19.158 0,20.164 0.705,21.713 4.263,20.093 9.429,22.445   7.219,23.451 7.924,25 11.482,23.381 15.04,25 15.746,23.451 13.536,22.445 18.702,20.093 22.26,21.713 22.965,20.164   20.756,19.158 "
     id="polygon3041"
     style="fill:#ffffff;fill-opacity:1" /></svg>