<?xml version="1.0" encoding="UTF-8" standalone="no"?>
<!-- Generator: Adobe Illustrator 15.0.2, SVG Export Plug-In  -->

<svg
   xmlns:dc="http://purl.org/dc/elements/1.1/"
   xmlns:cc="http://creativecommons.org/ns#"
   xmlns:rdf="http://www.w3.org/1999/02/22-rdf-syntax-ns#"
   xmlns:svg="http://www.w3.org/2000/svg"
   xmlns="http://www.w3.org/2000/svg"
   xmlns:sodipodi="http://sodipodi.sourceforge.net/DTD/sodipodi-0.dtd"
   xmlns:inkscape="http://www.inkscape.org/namespaces/inkscape"
   version="1.1"
   x="0px"
   y="0px"
   width="30px"
   height="30px"
   viewBox="-2.5 -2.5 30 30"
   overflow="visible"
   enable-background="new -2.5 -2.5 30 30"
   xml:space="preserve"
   id="svg3086"
   inkscape:version="0.48.4 r9939"
   sodipodi:docname="embed-map-w.svg"><metadata
     id="metadata3098"><rdf:RDF><cc:Work
         rdf:about=""><dc:format>image/svg+xml</dc:format><dc:type
           rdf:resource="http://purl.org/dc/dcmitype/StillImage" /></cc:Work></rdf:RDF></metadata><sodipodi:namedview
     pagecolor="#ffffff"
     bordercolor="#666666"
     borderopacity="1"
     objecttolerance="10"
     gridtolerance="10"
     guidetolerance="10"
     inkscape:pageopacity="0"
     inkscape:pageshadow="2"
     inkscape:window-width="753"
     inkscape:window-height="480"
     id="namedview3096"
     showgrid="false"
     inkscape:zoom="7.8666667"
     inkscape:cx="-7.3728813"
     inkscape:cy="15"
     inkscape:window-x="65"
     inkscape:window-y="24"
     inkscape:window-maximized="0"
     inkscape:current-layer="svg3086" /><defs
     id="defs3088" /><path
     d="M16.287,0.304L8.71,2.329L0,0v22.626h0.969l7.741,2.069l7.577-2.024L25,25V2.633L16.287,0.304z M22.729,22.277l-6.441-1.721  L8.71,22.582l-6.437-1.723V2.722L8.71,4.443l7.577-2.025l6.441,1.722V22.277z"
     id="path3090"
     style="fill:#ffffff;fill-opacity:1" /><path
     style="fill:#ffffff;fill-opacity:1"
     d="M 10.087,6.293 3.88,12.5 10.087,18.707 11.501,17.293 6.708,12.5 11.501,7.707 z"
     id="polygon3092" /><path
     style="fill:#ffffff;fill-opacity:1"
     d="M 13.5,7.707 18.293,12.5 13.5,17.293 14.914,18.707 21.121,12.5 14.914,6.293 z"
     id="polygon3094" /></svg>