<?xml version="1.0" encoding="UTF-8" standalone="no"?>
<!-- Generator: Adobe Illustrator 15.0.2, SVG Export Plug-In  -->

<svg
   xmlns:dc="http://purl.org/dc/elements/1.1/"
   xmlns:cc="http://creativecommons.org/ns#"
   xmlns:rdf="http://www.w3.org/1999/02/22-rdf-syntax-ns#"
   xmlns:svg="http://www.w3.org/2000/svg"
   xmlns="http://www.w3.org/2000/svg"
   xmlns:sodipodi="http://sodipodi.sourceforge.net/DTD/sodipodi-0.dtd"
   xmlns:inkscape="http://www.inkscape.org/namespaces/inkscape"
   version="1.1"
   x="0px"
   y="0px"
   width="30px"
   height="30px"
   viewBox="-2.5 -2.5 30 30"
   overflow="visible"
   enable-background="new -2.5 -2.5 30 30"
   xml:space="preserve"
   id="svg3112"
   inkscape:version="0.48.4 r9939"
   sodipodi:docname="Functions.svg"><metadata
     id="metadata3120"><rdf:RDF><cc:Work
         rdf:about=""><dc:format>image/svg+xml</dc:format><dc:type
           rdf:resource="http://purl.org/dc/dcmitype/StillImage" /></cc:Work></rdf:RDF></metadata><sodipodi:namedview
     pagecolor="#ffffff"
     bordercolor="#666666"
     borderopacity="1"
     objecttolerance="10"
     gridtolerance="10"
     guidetolerance="10"
     inkscape:pageopacity="0"
     inkscape:pageshadow="2"
     inkscape:window-width="753"
     inkscape:window-height="480"
     id="namedview3118"
     showgrid="false"
     inkscape:zoom="7.8666667"
     inkscape:cx="15"
     inkscape:cy="15"
     inkscape:window-x="65"
     inkscape:window-y="24"
     inkscape:window-maximized="0"
     inkscape:current-layer="svg3112" /><defs
     id="defs3114" /><path
     d="M25,14v-3h-2.904l-1.67-4.306l1.973-1.973l-2.121-2.121l-2.046,2.046L14,2.78V0h-3v2.894L6.688,4.566L4.721,2.601L2.6,4.722  l2.053,2.052L2.788,11H0v3h2.915l1.667,4.297L2.6,20.278l2.121,2.121l2.068-2.067L11,22.189V25h3v-2.925l4.289-1.664l1.988,1.988  l2.121-2.121l-2.062-2.062L22.197,14H25z M17.629,13.099c-0.002,0.011-0.004,0.021-0.006,0.032c-0.023,0.19-0.058,0.378-0.102,0.562  c-0.128,0.544-0.343,1.054-0.629,1.516c-0.423,0.685-1,1.263-1.686,1.686c-0.462,0.286-0.972,0.501-1.516,0.629  c-0.184,0.044-0.371,0.077-0.561,0.102c-0.012,0.001-0.021,0.004-0.033,0.005c-0.195,0.024-0.395,0.037-0.598,0.037  s-0.402-0.013-0.6-0.037c-0.011-0.001-0.021-0.004-0.032-0.005c-0.19-0.024-0.378-0.058-0.562-0.102  c-0.543-0.128-1.053-0.343-1.516-0.629c-0.685-0.423-1.262-1.001-1.686-1.686c-0.285-0.462-0.5-0.972-0.629-1.516  c-0.043-0.184-0.076-0.371-0.102-0.562c-0.001-0.011-0.004-0.021-0.004-0.032c-0.024-0.196-0.038-0.396-0.038-0.599  s0.014-0.402,0.038-0.599c0-0.011,0.003-0.021,0.004-0.032c0.025-0.19,0.059-0.378,0.102-0.562c0.129-0.544,0.344-1.053,0.629-1.516  C8.529,9.107,9.106,8.53,9.791,8.106c0.463-0.286,0.973-0.5,1.516-0.629c0.184-0.043,0.371-0.077,0.562-0.102  c0.011-0.001,0.021-0.004,0.032-0.005c0.197-0.024,0.396-0.037,0.6-0.037s0.402,0.013,0.598,0.037  c0.012,0.001,0.021,0.004,0.033,0.005c0.189,0.024,0.377,0.058,0.561,0.102c0.544,0.128,1.054,0.343,1.516,0.629  c0.686,0.423,1.264,1,1.686,1.686c0.286,0.462,0.501,0.972,0.629,1.516c0.044,0.184,0.078,0.372,0.102,0.562  c0.002,0.011,0.004,0.021,0.006,0.032c0.023,0.196,0.037,0.396,0.037,0.599S17.652,12.902,17.629,13.099z"
     id="path3116"
     style="fill:#2980b9;fill-opacity:1" /></svg>