<?xml version="1.0" encoding="UTF-8" standalone="no"?>
<!-- Generator: Adobe Illustrator 15.0.2, SVG Export Plug-In  -->

<svg
   xmlns:dc="http://purl.org/dc/elements/1.1/"
   xmlns:cc="http://creativecommons.org/ns#"
   xmlns:rdf="http://www.w3.org/1999/02/22-rdf-syntax-ns#"
   xmlns:svg="http://www.w3.org/2000/svg"
   xmlns="http://www.w3.org/2000/svg"
   xmlns:sodipodi="http://sodipodi.sourceforge.net/DTD/sodipodi-0.dtd"
   xmlns:inkscape="http://www.inkscape.org/namespaces/inkscape"
   version="1.1"
   x="0px"
   y="0px"
   width="30px"
   height="30px"
   viewBox="-2.5 -2.5 30 30"
   overflow="visible"
   enable-background="new -2.5 -2.5 30 30"
   xml:space="preserve"
   id="svg3100"
   inkscape:version="0.48.4 r9939"
   sodipodi:docname="expand.svg"><metadata
     id="metadata3110"><rdf:RDF><cc:Work
         rdf:about=""><dc:format>image/svg+xml</dc:format><dc:type
           rdf:resource="http://purl.org/dc/dcmitype/StillImage" /><dc:title></dc:title></cc:Work></rdf:RDF></metadata><sodipodi:namedview
     pagecolor="#ffffff"
     bordercolor="#666666"
     borderopacity="1"
     objecttolerance="10"
     gridtolerance="10"
     guidetolerance="10"
     inkscape:pageopacity="0"
     inkscape:pageshadow="2"
     inkscape:window-width="1213"
     inkscape:window-height="778"
     id="namedview3108"
     showgrid="false"
     inkscape:zoom="22.250293"
     inkscape:cx="13.680543"
     inkscape:cy="14.443803"
     inkscape:window-x="1347"
     inkscape:window-y="155"
     inkscape:window-maximized="0"
     inkscape:current-layer="svg3100"
     inkscape:snap-global="true"
     inkscape:snap-grids="false" /><defs
     id="defs3102" /><path
     d="M 12.5,25 C 19.404,25 25,19.403 25,12.5 25,5.597 19.404,0 12.5,0 5.598,0 0,5.597 0,12.5 0,19.403 5.598,25 12.5,25 z m 0,-23 C 18.29,2 23,6.71 23,12.5 23,18.29 18.29,23 12.5,23 6.711,23 2,18.29 2,12.5 2,6.71 6.711,2 12.5,2 z"
     id="path3104"
     style="fill:#2980b9;fill-opacity:1"
     inkscape:connector-curvature="0" /><rect
     x="11.372881"
     y="11.552966"
     width="2"
     height="8.25"
     id="rect3214"
     style="fill:#2980b9;fill-opacity:1" /><rect
     x="11.380593"
     y="5.8704944"
     width="2"
     height="3.6737287"
     id="rect3214-3"
     style="fill:#2980b9;fill-opacity:1" /></svg>