<?xml version="1.0" encoding="UTF-8" standalone="no"?>
<!-- Generator: Adobe Illustrator 15.0.2, SVG Export Plug-In  -->

<svg
   xmlns:dc="http://purl.org/dc/elements/1.1/"
   xmlns:cc="http://creativecommons.org/ns#"
   xmlns:rdf="http://www.w3.org/1999/02/22-rdf-syntax-ns#"
   xmlns:svg="http://www.w3.org/2000/svg"
   xmlns="http://www.w3.org/2000/svg"
   xmlns:sodipodi="http://sodipodi.sourceforge.net/DTD/sodipodi-0.dtd"
   xmlns:inkscape="http://www.inkscape.org/namespaces/inkscape"
   version="1.1"
   x="0px"
   y="0px"
   width="30px"
   height="30px"
   viewBox="-2.5 -2.5 30 30"
   overflow="visible"
   enable-background="new -2.5 -2.5 30 30"
   xml:space="preserve"
   id="svg3132"
   inkscape:version="0.48.4 r9939"
   sodipodi:docname="Map-location.svg"><metadata
     id="metadata3140"><rdf:RDF><cc:Work
         rdf:about=""><dc:format>image/svg+xml</dc:format><dc:type
           rdf:resource="http://purl.org/dc/dcmitype/StillImage" /></cc:Work></rdf:RDF></metadata><sodipodi:namedview
     pagecolor="#ffffff"
     bordercolor="#666666"
     borderopacity="1"
     objecttolerance="10"
     gridtolerance="10"
     guidetolerance="10"
     inkscape:pageopacity="0"
     inkscape:pageshadow="2"
     inkscape:window-width="753"
     inkscape:window-height="480"
     id="namedview3138"
     showgrid="false"
     inkscape:zoom="7.8666667"
     inkscape:cx="-0.19067797"
     inkscape:cy="15"
     inkscape:window-x="1051"
     inkscape:window-y="114"
     inkscape:window-maximized="0"
     inkscape:current-layer="svg3132" /><defs
     id="defs3134" /><path
     d="M25,11.5h-2.551C21.98,6.776,18.223,3.02,13.5,2.551V0h-2v2.55C6.776,3.02,3.02,6.776,2.551,11.5H0v2h2.551  c0.469,4.723,4.226,8.48,8.949,8.949V25h2v-2.551c4.723-0.469,8.48-4.227,8.949-8.949H25V11.5z M13.5,20.431V18.41  c-0.326,0.055-0.659,0.09-1,0.09c-0.342,0-0.675-0.035-1-0.09v2.021c-3.612-0.453-6.478-3.319-6.931-6.931H6.59  c-0.055-0.326-0.09-0.659-0.09-1s0.035-0.674,0.09-1H4.569C5.022,7.888,7.888,5.022,11.5,4.569V6.59c0.325-0.055,0.658-0.09,1-0.09  c0.341,0,0.674,0.035,1,0.09V4.569c3.611,0.454,6.478,3.319,6.931,6.931H18.41c0.055,0.326,0.09,0.659,0.09,1s-0.035,0.674-0.09,1  h2.021C19.978,17.111,17.111,19.978,13.5,20.431z"
     id="path3136"
     style="fill:#2980b9;fill-opacity:1" /></svg>