<?xml version="1.0" encoding="UTF-8" standalone="no"?>
<!-- Generator: Adobe Illustrator 15.0.2, SVG Export Plug-In  -->

<svg
   xmlns:dc="http://purl.org/dc/elements/1.1/"
   xmlns:cc="http://creativecommons.org/ns#"
   xmlns:rdf="http://www.w3.org/1999/02/22-rdf-syntax-ns#"
   xmlns:svg="http://www.w3.org/2000/svg"
   xmlns="http://www.w3.org/2000/svg"
   xmlns:sodipodi="http://sodipodi.sourceforge.net/DTD/sodipodi-0.dtd"
   xmlns:inkscape="http://www.inkscape.org/namespaces/inkscape"
   version="1.1"
   x="0px"
   y="0px"
   width="30px"
   height="30px"
   viewBox="-2.982 -2.5 30 30"
   overflow="visible"
   enable-background="new -2.982 -2.5 30 30"
   xml:space="preserve"
   id="svg3247"
   inkscape:version="0.48.4 r9939"
   sodipodi:docname="restore-zoom-w.svg"><metadata
     id="metadata3255"><rdf:RDF><cc:Work
         rdf:about=""><dc:format>image/svg+xml</dc:format><dc:type
           rdf:resource="http://purl.org/dc/dcmitype/StillImage" /></cc:Work></rdf:RDF></metadata><sodipodi:namedview
     pagecolor="#ffffff"
     bordercolor="#666666"
     borderopacity="1"
     objecttolerance="10"
     gridtolerance="10"
     guidetolerance="10"
     inkscape:pageopacity="0"
     inkscape:pageshadow="2"
     inkscape:window-width="753"
     inkscape:window-height="480"
     id="namedview3253"
     showgrid="false"
     inkscape:zoom="7.8666667"
     inkscape:cx="-7.3728813"
     inkscape:cy="15"
     inkscape:window-x="75"
     inkscape:window-y="34"
     inkscape:window-maximized="0"
     inkscape:current-layer="svg3247" /><defs
     id="defs3249" /><path
     d="M17.021,16.659l-0.077,0.077c0.729-0.861,1.318-1.855,1.716-2.959l-1.809-0.659c-1.1,3.057-4.007,5.111-7.233,5.111  c-4.242,0-7.694-3.473-7.694-7.74c0-4.271,3.452-7.744,7.694-7.744c1.349,0,2.652,0.372,3.812,1.044L12.055,5.89l4.854-1.003  L15.912,0l-1.423,2.173c-1.479-0.88-3.146-1.362-4.872-1.362C4.315,0.811,0,5.152,0,10.489c0,5.336,4.315,9.676,9.617,9.676  c2.321,0,4.509-0.854,6.211-2.305l-0.08,0.08L22.762,25l1.273-1.281L17.021,16.659z"
     id="path3251"
     style="fill:#ffffff;fill-opacity:1" /></svg>