<?xml version="1.0" encoding="UTF-8" standalone="no"?>
<!-- Generator: Adobe Illustrator 15.0.2, SVG Export Plug-In  -->

<svg
   xmlns:dc="http://purl.org/dc/elements/1.1/"
   xmlns:cc="http://creativecommons.org/ns#"
   xmlns:rdf="http://www.w3.org/1999/02/22-rdf-syntax-ns#"
   xmlns:svg="http://www.w3.org/2000/svg"
   xmlns="http://www.w3.org/2000/svg"
   xmlns:sodipodi="http://sodipodi.sourceforge.net/DTD/sodipodi-0.dtd"
   xmlns:inkscape="http://www.inkscape.org/namespaces/inkscape"
   version="1.1"
   x="0px"
   y="0px"
   width="30px"
   height="30px"
   viewBox="-2.375 -2.5 30 30"
   overflow="visible"
   enable-background="new -2.375 -2.5 30 30"
   xml:space="preserve"
   id="svg3292"
   inkscape:version="0.48.4 r9939"
   sodipodi:docname="Tools.svg"><metadata
     id="metadata3304"><rdf:RDF><cc:Work
         rdf:about=""><dc:format>image/svg+xml</dc:format><dc:type
           rdf:resource="http://purl.org/dc/dcmitype/StillImage" /></cc:Work></rdf:RDF></metadata><sodipodi:namedview
     pagecolor="#ffffff"
     bordercolor="#666666"
     borderopacity="1"
     objecttolerance="10"
     gridtolerance="10"
     guidetolerance="10"
     inkscape:pageopacity="0"
     inkscape:pageshadow="2"
     inkscape:window-width="753"
     inkscape:window-height="480"
     id="namedview3302"
     showgrid="false"
     inkscape:zoom="7.8666667"
     inkscape:cx="15"
     inkscape:cy="15"
     inkscape:window-x="65"
     inkscape:window-y="24"
     inkscape:window-maximized="0"
     inkscape:current-layer="svg3292" /><defs
     id="defs3294" /><polygon
     points="14.125,0 12.125,0 12.125,10.84 11.125,10.84 11.125,25 13.125,25 15.125,25 15.125,10.84 14.125,10.84 "
     id="polygon3296"
     style="fill:#2980b9;fill-opacity:1" /><polygon
     points="5,4 2,4 2,0 0,0 0,6 2.5,6 2.5,25 4.5,25 4.5,6 7,6 7,0 5,0 "
     id="polygon3298"
     style="fill:#2980b9;fill-opacity:1" /><polygon
     points="18.21,0 18.21,4.674 22.126,4.674 22.126,25 24.126,25 24.126,4.674 25.25,4.674 25.25,0 "
     id="polygon3300"
     style="fill:#2980b9;fill-opacity:1" /></svg>