<?xml version="1.0" encoding="utf-8"?>
<!-- Generator: Adobe Illustrator 15.0.2, SVG Export Plug-In  -->
<!DOCTYPE svg PUBLIC "-//W3C//DTD SVG 1.1//EN" "http://www.w3.org/Graphics/SVG/1.1/DTD/svg11.dtd" [
	<!ENTITY ns_flows "http://ns.adobe.com/Flows/1.0/">
]>
<svg version="1.1"
	 xmlns="http://www.w3.org/2000/svg" xmlns:xlink="http://www.w3.org/1999/xlink" xmlns:a="http://ns.adobe.com/AdobeSVGViewerExtensions/3.0/"
	 x="0px" y="0px" width="30px" height="30px" viewBox="-4.636 -2.5 30 30"
	 overflow="visible" enable-background="new -4.636 -2.5 30 30" xml:space="preserve">
<defs>
</defs>
<path d="M20.727,15.504l-1.668-0.901c-0.273,0.506-0.604,0.966-0.957,1.402l-0.773-0.773c0.934-1.181,1.543-2.625,1.691-4.205h1.502
	v-1.52H19.02c-0.359-3.825-3.41-6.875-7.236-7.236v-1.5h-1.518v1.5c-1.58,0.149-3.024,0.76-4.205,1.691l-0.79-0.789
	C5.988,2.594,6.8,2.115,7.694,1.765L7.004,0C2.749,1.667,0,5.697,0,10.267c0,5.758,4.441,10.493,10.077,10.976v1.861H6.879V25h8.292
	v-1.896h-3.197v-1.878C15.651,20.909,18.95,18.792,20.727,15.504z M15.989,16.571l0.783,0.783c-1.408,1.14-3.141,1.836-4.988,1.989
	v-1.081C13.364,18.115,14.809,17.504,15.989,16.571z M10.266,4.18v1.597c0.248-0.042,0.5-0.068,0.76-0.068
	c0.26,0,0.512,0.027,0.758,0.068V4.18c2.779,0.345,4.982,2.549,5.328,5.327h-1.596c0.041,0.248,0.066,0.5,0.066,0.76
	s-0.025,0.512-0.066,0.76h1.596c-0.346,2.778-2.549,4.982-5.328,5.329v-1.599c-0.246,0.042-0.498,0.068-0.758,0.068
	c-0.26,0-0.512-0.026-0.76-0.068v1.599c-2.778-0.346-4.983-2.551-5.329-5.329h1.599c-0.042-0.248-0.068-0.5-0.068-0.76
	s0.026-0.512,0.068-0.76H4.937C5.282,6.729,7.487,4.525,10.266,4.18z M1.952,9.507c0.153-1.866,0.856-3.584,1.991-4.981l0.777,0.777
	C3.788,6.483,3.177,7.928,3.029,9.507H1.952z M1.934,11.027h1.096c0.36,3.825,3.41,6.875,7.236,7.236v1.095
	C5.837,18.99,2.302,15.455,1.934,11.027z"/>
</svg>
