<?xml version="1.0" encoding="utf-8"?>
<!-- Generator: Adobe Illustrator 15.0.2, SVG Export Plug-In  -->
<!DOCTYPE svg PUBLIC "-//W3C//DTD SVG 1.1//EN" "http://www.w3.org/Graphics/SVG/1.1/DTD/svg11.dtd" [
	<!ENTITY ns_flows "http://ns.adobe.com/Flows/1.0/">
]>
<svg version="1.1"
	 xmlns="http://www.w3.org/2000/svg" xmlns:xlink="http://www.w3.org/1999/xlink" xmlns:a="http://ns.adobe.com/AdobeSVGViewerExtensions/3.0/"
	 x="0px" y="0px" width="30px" height="30px" viewBox="-2.5 -2.5 30 30"
	 overflow="visible" enable-background="new -2.5 -2.5 30 30" xml:space="preserve">
<defs>
</defs>
<g>
	<path d="M0,0v25h25V0H0z M6.213,21.93L3.07,18.785l1.619-1.618l0.812,0.812l0.533-0.533l-0.812-0.812l2.452-2.452l1.886,1.886
		l0.533-0.532l-1.885-1.887l2.453-2.453l0.812,0.812l0.533-0.533l-0.812-0.812l2.452-2.452l1.886,1.886l0.533-0.534l-1.886-1.886
		l2.452-2.452l0.812,0.812l0.533-0.533l-0.812-0.812l1.619-1.619l3.144,3.143L6.213,21.93z"/>
</g>
</svg>
