<?xml version="1.0" encoding="utf-8"?>
<!-- Generator: Adobe Illustrator 15.0.2, SVG Export Plug-In  -->
<!DOCTYPE svg PUBLIC "-//W3C//DTD SVG 1.1//EN" "http://www.w3.org/Graphics/SVG/1.1/DTD/svg11.dtd" [
	<!ENTITY ns_flows "http://ns.adobe.com/Flows/1.0/">
]>
<svg version="1.1"
	 xmlns="http://www.w3.org/2000/svg" xmlns:xlink="http://www.w3.org/1999/xlink" xmlns:a="http://ns.adobe.com/AdobeSVGViewerExtensions/3.0/"
	 x="0px" y="0px" width="30px" height="30px" viewBox="-2.5 -2.5 30 30"
	 overflow="visible" enable-background="new -2.5 -2.5 30 30" xml:space="preserve">
<defs>
</defs>
<g>
	<path d="M0,0v25h25V0H0z M7.552,4.186C7.685,3.79,8.047,3.5,8.488,3.5c0.553,0,1,0.448,1,1s-0.447,1-1,1s-1-0.448-1-1
		C7.488,4.388,7.514,4.284,7.552,4.186z M4.5,21.5c-0.553,0-1-0.448-1-1c0-0.192,0.069-0.362,0.163-0.515
		c0.003-0.006,0.007-0.01,0.011-0.016c0.054-0.084,0.113-0.16,0.189-0.224c0.031-0.028,0.069-0.047,0.104-0.071
		c0.058-0.037,0.109-0.077,0.175-0.103C4.253,19.527,4.372,19.5,4.5,19.5c0.552,0,1,0.448,1,1S5.052,21.5,4.5,21.5z M4.5,18.5
		c-0.204,0-0.397,0.04-0.583,0.097L6.925,5.732C7.291,6.196,7.852,6.5,8.488,6.5c0.108,0,0.214-0.015,0.317-0.032l-2.94,12.579
		C5.508,18.71,5.028,18.5,4.5,18.5z M17.039,21.5H6.222c0.172-0.296,0.278-0.634,0.278-1s-0.106-0.704-0.278-1h10.817
		c-0.173,0.296-0.279,0.634-0.279,1S16.866,21.204,17.039,21.5z M13.535,11.542c0-0.312,0.151-0.579,0.375-0.763
		c0.062-0.052,0.128-0.098,0.2-0.135c0.031-0.015,0.062-0.024,0.096-0.036c0.103-0.039,0.211-0.066,0.329-0.066c0.553,0,1,0.448,1,1
		c0,0.552-0.447,1-1,1c-0.123,0-0.236-0.029-0.345-0.07c-0.037-0.014-0.069-0.031-0.104-0.049c-0.067-0.035-0.128-0.076-0.185-0.125
		c-0.035-0.029-0.069-0.055-0.101-0.089c-0.063-0.071-0.118-0.15-0.16-0.238C13.578,11.841,13.535,11.698,13.535,11.542z
		 M17.119,19.362l-2.754-5.837c0.057,0.004,0.112,0.017,0.17,0.017c0.681,0,1.281-0.343,1.643-0.863l2.753,5.837
		c-0.058-0.004-0.112-0.017-0.171-0.017C18.08,18.5,17.48,18.843,17.119,19.362z M18.76,21.5c-0.552,0-1-0.448-1-1s0.448-1,1-1
		c0.123,0,0.236,0.028,0.344,0.069c0.038,0.014,0.07,0.031,0.105,0.05c0.066,0.034,0.126,0.075,0.182,0.123
		c0.036,0.029,0.071,0.055,0.103,0.089c0.066,0.074,0.124,0.156,0.167,0.248c0.061,0.129,0.1,0.27,0.1,0.421
		C19.76,21.052,19.312,21.5,18.76,21.5z M16.412,10.874c-0.238-0.666-0.813-1.168-1.523-1.296L18.342,5.5H10.21
		c0.173-0.295,0.278-0.634,0.278-1s-0.105-0.705-0.278-1h8.567c-0.172,0.295-0.277,0.634-0.277,1c0,0.982,0.713,1.796,1.646,1.964
		L16.412,10.874z M20.5,5.5c-0.553,0-1-0.448-1-1s0.447-1,1-1c0.552,0,1,0.448,1,1S21.052,5.5,20.5,5.5z"/>
</g>
</svg>
