<?xml version="1.0" encoding="utf-8"?>
<!-- Generator: Adobe Illustrator 15.0.2, SVG Export Plug-In  -->
<!DOCTYPE svg PUBLIC "-//W3C//DTD SVG 1.1//EN" "http://www.w3.org/Graphics/SVG/1.1/DTD/svg11.dtd" [
	<!ENTITY ns_flows "http://ns.adobe.com/Flows/1.0/">
]>
<svg version="1.1"
	 xmlns="http://www.w3.org/2000/svg" xmlns:xlink="http://www.w3.org/1999/xlink" xmlns:a="http://ns.adobe.com/AdobeSVGViewerExtensions/3.0/"
	 x="0px" y="0px" width="30px" height="30px" viewBox="-2.5 -2.5 30 30"
	 overflow="visible" enable-background="new -2.5 -2.5 30 30" xml:space="preserve">
<defs>
</defs>
<path d="M25,14v-3h-2.904l-1.67-4.306l1.973-1.973l-2.121-2.121l-2.046,2.046L14,2.78V0h-3v2.894L6.688,4.566L4.721,2.601L2.6,4.722
	l2.053,2.052L2.788,11H0v3h2.915l1.667,4.297L2.6,20.278l2.121,2.121l2.068-2.067L11,22.189V25h3v-2.925l4.289-1.664l1.988,1.988
	l2.121-2.121l-2.062-2.062L22.197,14H25z M17.629,13.099c-0.002,0.011-0.004,0.021-0.006,0.032c-0.023,0.19-0.058,0.378-0.102,0.562
	c-0.128,0.544-0.343,1.054-0.629,1.516c-0.423,0.685-1,1.263-1.686,1.686c-0.462,0.286-0.972,0.501-1.516,0.629
	c-0.184,0.044-0.371,0.077-0.561,0.102c-0.012,0.001-0.021,0.004-0.033,0.005c-0.195,0.024-0.395,0.037-0.598,0.037
	s-0.402-0.013-0.6-0.037c-0.011-0.001-0.021-0.004-0.032-0.005c-0.19-0.024-0.378-0.058-0.562-0.102
	c-0.543-0.128-1.053-0.343-1.516-0.629c-0.685-0.423-1.262-1.001-1.686-1.686c-0.285-0.462-0.5-0.972-0.629-1.516
	c-0.043-0.184-0.076-0.371-0.102-0.562c-0.001-0.011-0.004-0.021-0.004-0.032c-0.024-0.196-0.038-0.396-0.038-0.599
	s0.014-0.402,0.038-0.599c0-0.011,0.003-0.021,0.004-0.032c0.025-0.19,0.059-0.378,0.102-0.562c0.129-0.544,0.344-1.053,0.629-1.516
	C8.529,9.107,9.106,8.53,9.791,8.106c0.463-0.286,0.973-0.5,1.516-0.629c0.184-0.043,0.371-0.077,0.562-0.102
	c0.011-0.001,0.021-0.004,0.032-0.005c0.197-0.024,0.396-0.037,0.6-0.037s0.402,0.013,0.598,0.037
	c0.012,0.001,0.021,0.004,0.033,0.005c0.189,0.024,0.377,0.058,0.561,0.102c0.544,0.128,1.054,0.343,1.516,0.629
	c0.686,0.423,1.264,1,1.686,1.686c0.286,0.462,0.501,0.972,0.629,1.516c0.044,0.184,0.078,0.372,0.102,0.562
	c0.002,0.011,0.004,0.021,0.006,0.032c0.023,0.196,0.037,0.396,0.037,0.599S17.652,12.902,17.629,13.099z"/>
</svg>
