<?xml version="1.0" encoding="utf-8"?>
<!-- Generator: Adobe Illustrator 15.0.2, SVG Export Plug-In  -->
<!DOCTYPE svg PUBLIC "-//W3C//DTD SVG 1.1//EN" "http://www.w3.org/Graphics/SVG/1.1/DTD/svg11.dtd" [
	<!ENTITY ns_flows "http://ns.adobe.com/Flows/1.0/">
]>
<svg version="1.1"
	 xmlns="http://www.w3.org/2000/svg" xmlns:xlink="http://www.w3.org/1999/xlink" xmlns:a="http://ns.adobe.com/AdobeSVGViewerExtensions/3.0/"
	 x="0px" y="0px" width="30px" height="30px" viewBox="-7.354 -2.5 30 30"
	 overflow="visible" enable-background="new -7.354 -2.5 30 30" xml:space="preserve">
<defs>
</defs>
<path d="M15.291,7.646C15.291,3.422,11.869,0,7.645,0C3.423,0,0,3.422,0,7.646c0,1.317,0.332,2.558,0.919,3.638L6.891,25
	l1.096-2.011l2.453-4.494h-0.001l3.925-7.195C14.956,10.214,15.291,8.97,15.291,7.646z M12.358,10.205l-3.927,7.197l-1.311,2.405
	l-4.109-9.434l-0.039-0.092l-0.047-0.086c-0.428-0.787-0.642-1.646-0.642-2.55c0-2.956,2.405-5.362,5.36-5.362
	c2.957,0,5.362,2.406,5.362,5.362C13.007,8.555,12.788,9.416,12.358,10.205z"/>
<circle cx="7.645" cy="7.666" r="2.942"/>
</svg>
