<?xml version="1.0" encoding="utf-8"?>
<!-- Generator: Adobe Illustrator 15.0.2, SVG Export Plug-In  -->
<!DOCTYPE svg PUBLIC "-//W3C//DTD SVG 1.1//EN" "http://www.w3.org/Graphics/SVG/1.1/DTD/svg11.dtd" [
	<!ENTITY ns_flows "http://ns.adobe.com/Flows/1.0/">
]>
<svg version="1.1"
	 xmlns="http://www.w3.org/2000/svg" xmlns:xlink="http://www.w3.org/1999/xlink" xmlns:a="http://ns.adobe.com/AdobeSVGViewerExtensions/3.0/"
	 x="0px" y="0px" width="30px" height="30px" viewBox="-2.5 -2.5 30 30"
	 overflow="visible" enable-background="new -2.5 -2.5 30 30" xml:space="preserve">
<defs>
</defs>
<rect x="4.64" y="11.356" transform="matrix(-0.7071 0.7071 -0.7071 -0.7071 30.3222 12.1511)" width="16.009" height="2"/>
<path d="M18.305,0c-3.697,0-6.695,2.997-6.695,6.695c0,0.725,0.118,1.421,0.331,2.075l1.706-1.706
	c-0.01-0.124-0.037-0.243-0.037-0.369C13.609,4.106,15.715,2,18.305,2C20.894,2,23,4.106,23,6.695c0,2.589-2.106,4.696-4.695,4.696
	c-0.166,0-0.322-0.032-0.482-0.049l-1.684,1.683c0.68,0.233,1.406,0.365,2.166,0.365c3.697,0,6.695-2.997,6.695-6.695
	S22.002,0,18.305,0z"/>
<path d="M11.342,17.822c0.018,0.16,0.049,0.316,0.049,0.482c0,2.589-2.105,4.695-4.695,4.695C4.106,23,2,20.894,2,18.305
	c0-2.59,2.106-4.695,4.695-4.695c0.127,0,0.245,0.027,0.369,0.037l1.706-1.706c-0.653-0.213-1.351-0.332-2.075-0.332
	C2.998,11.609,0,14.606,0,18.305C0,22.002,2.998,25,6.695,25c3.698,0,6.695-2.998,6.695-6.695c0-0.76-0.132-1.486-0.365-2.166
	L11.342,17.822z"/>
</svg>
