<?xml version="1.0" encoding="UTF-8" standalone="no"?>
<!-- Generator: Adobe Illustrator 15.0.2, SVG Export Plug-In  -->

<svg
   xmlns:dc="http://purl.org/dc/elements/1.1/"
   xmlns:cc="http://creativecommons.org/ns#"
   xmlns:rdf="http://www.w3.org/1999/02/22-rdf-syntax-ns#"
   xmlns:svg="http://www.w3.org/2000/svg"
   xmlns="http://www.w3.org/2000/svg"
   xmlns:sodipodi="http://sodipodi.sourceforge.net/DTD/sodipodi-0.dtd"
   xmlns:inkscape="http://www.inkscape.org/namespaces/inkscape"
   version="1.1"
   x="0px"
   y="0px"
   width="30px"
   height="30px"
   viewBox="-2.5 -2.5 30 30"
   overflow="visible"
   enable-background="new -2.5 -2.5 30 30"
   xml:space="preserve"
   id="svg2"
   inkscape:version="0.48.4 r9939"
   sodipodi:docname="Search-action.svg"><metadata
     id="metadata12"><rdf:RDF><cc:Work
         rdf:about=""><dc:format>image/svg+xml</dc:format><dc:type
           rdf:resource="http://purl.org/dc/dcmitype/StillImage" /></cc:Work></rdf:RDF></metadata><sodipodi:namedview
     pagecolor="#ffffff"
     bordercolor="#666666"
     borderopacity="1"
     objecttolerance="10"
     gridtolerance="10"
     guidetolerance="10"
     inkscape:pageopacity="0"
     inkscape:pageshadow="2"
     inkscape:window-width="1082"
     inkscape:window-height="811"
     id="namedview10"
     showgrid="false"
     inkscape:zoom="7.8666667"
     inkscape:cx="15"
     inkscape:cy="15"
     inkscape:window-x="887"
     inkscape:window-y="304"
     inkscape:window-maximized="0"
     inkscape:current-layer="svg2" /><defs
     id="defs4" /><path
     style="font-size:medium;font-style:normal;font-variant:normal;font-weight:normal;font-stretch:normal;text-indent:0;text-align:start;text-decoration:none;line-height:normal;letter-spacing:normal;word-spacing:normal;text-transform:none;direction:ltr;block-progression:tb;writing-mode:lr-tb;text-anchor:start;baseline-shift:baseline;color:#000000;fill-opacity:1;fill-rule:nonzero;stroke:none;stroke-width:1;marker:none;visibility:visible;display:inline;overflow:visible;enable-background:accumulate;font-family:Sans;-inkscape-font-specification:Sans"
     d="M 10.8125,3.5 C 6.7893557,3.5 3.5,6.7894446 3.5,10.8125 c 0,4.022128 3.2895334,7.28125 7.3125,7.28125 1.595228,0 3.046703,-0.532295 4.25,-1.40625 l 4.6875,4.65625 0.34375,0.375 0.34375,-0.375 0.90625,-0.875 0.375,-0.375 -0.375,-0.34375 -4.65625,-4.6875 c 0.873955,-1.203297 1.40625,-2.654772 1.40625,-4.25 C 18.09375,6.7893557 14.833789,3.5 10.8125,3.5 z m 0,1 c 3.478711,0 6.28125,2.8316443 6.28125,6.3125 0,1.526923 -0.530811,2.907894 -1.4375,4 L 15.375,15.15625 15.6875,15.5 20.3125,20.125 20.09375,20.3125 15.5,15.6875 15.15625,15.375 14.8125,15.65625 c -1.092106,0.906689 -2.473077,1.4375 -4,1.4375 C 7.3314666,17.09375 4.5,14.292372 4.5,10.8125 4.5,7.3315554 7.3316443,4.5 10.8125,4.5 z"
     id="path8"
     inkscape:connector-curvature="0"
     sodipodi:nodetypes="sssccccccccssssccccccccsss" /></svg>