<?xml version="1.0" encoding="utf-8"?>
<!-- Generator: Adobe Illustrator 15.0.2, SVG Export Plug-In  -->
<!DOCTYPE svg PUBLIC "-//W3C//DTD SVG 1.1//EN" "http://www.w3.org/Graphics/SVG/1.1/DTD/svg11.dtd" [
	<!ENTITY ns_flows "http://ns.adobe.com/Flows/1.0/">
]>
<svg version="1.1"
	 xmlns="http://www.w3.org/2000/svg" xmlns:xlink="http://www.w3.org/1999/xlink" xmlns:a="http://ns.adobe.com/AdobeSVGViewerExtensions/3.0/"
	 x="0px" y="0px" width="30px" height="30px" viewBox="-2.375 -2.5 30 30"
	 overflow="visible" enable-background="new -2.375 -2.5 30 30" xml:space="preserve">
<defs>
</defs>
<polygon points="14.125,0 12.125,0 12.125,10.84 11.125,10.84 11.125,25 13.125,25 15.125,25 15.125,10.84 14.125,10.84 "/>
<polygon points="5,4 2,4 2,0 0,0 0,6 2.5,6 2.5,25 4.5,25 4.5,6 7,6 7,0 5,0 "/>
<polygon points="18.21,0 18.21,4.674 22.126,4.674 22.126,25 24.126,25 24.126,4.674 25.25,4.674 25.25,0 "/>
</svg>
