<?xml version="1.0" encoding="UTF-8" standalone="no"?>
<!-- Generator: Adobe Illustrator 15.0.2, SVG Export Plug-In  -->

<svg
   xmlns:dc="http://purl.org/dc/elements/1.1/"
   xmlns:cc="http://creativecommons.org/ns#"
   xmlns:rdf="http://www.w3.org/1999/02/22-rdf-syntax-ns#"
   xmlns:svg="http://www.w3.org/2000/svg"
   xmlns="http://www.w3.org/2000/svg"
   xmlns:sodipodi="http://sodipodi.sourceforge.net/DTD/sodipodi-0.dtd"
   xmlns:inkscape="http://www.inkscape.org/namespaces/inkscape"
   version="1.1"
   x="0px"
   y="0px"
   width="30px"
   height="30px"
   viewBox="-2.5 -2.5 30 30"
   overflow="visible"
   enable-background="new -2.5 -2.5 30 30"
   xml:space="preserve"
   id="svg2"
   inkscape:version="0.48.4 r9939"
   sodipodi:docname="Add-layer.svg"><metadata
     id="metadata12"><rdf:RDF><cc:Work
         rdf:about=""><dc:format>image/svg+xml</dc:format><dc:type
           rdf:resource="http://purl.org/dc/dcmitype/StillImage" /></cc:Work></rdf:RDF></metadata><sodipodi:namedview
     pagecolor="#ffffff"
     bordercolor="#666666"
     borderopacity="1"
     objecttolerance="10"
     gridtolerance="10"
     guidetolerance="10"
     inkscape:pageopacity="0"
     inkscape:pageshadow="2"
     inkscape:window-width="753"
     inkscape:window-height="480"
     id="namedview10"
     showgrid="false"
     inkscape:zoom="7.8666667"
     inkscape:cx="15"
     inkscape:cy="15"
     inkscape:window-x="75"
     inkscape:window-y="34"
     inkscape:window-maximized="0"
     inkscape:current-layer="svg2" /><defs
     id="defs4" /><path
     d="M18.75,9.375L25,6.25L12.5,0L0,6.25l6.25,3.125L0,12.5l6.25,3.125L0,18.75L12.5,25L25,18.75l-6.25-3.125L25,12.5  L18.75,9.375z M4.472,6.25L12.5,2.236l8.027,4.014L12.5,10.264L4.472,6.25z M20.527,18.75L12.5,22.765L4.472,18.75l4.014-2.007  L12.5,18.75l4.014-2.007L20.527,18.75z M12.5,16.515L4.472,12.5l4.014-2.007L12.5,12.5l4.014-2.007l4.014,2.007L12.5,16.515z"
     id="path6"
     style="fill:#2980b9;fill-opacity:1" /><polygon
     points="13.285,8.608 13.285,7.036 14.857,7.036 14.861,7.035 14.861,5.465 14.857,5.464 13.285,5.464 13.285,3.892   13.285,3.889 11.714,3.889 11.713,3.892 11.713,5.464 10.142,5.464 10.138,5.465 10.138,7.035 10.142,7.036 11.713,7.036   11.713,8.608 11.714,8.611 13.285,8.611 "
     id="polygon8"
     style="fill:#2980b9;fill-opacity:1" /></svg>