<?xml version="1.0" encoding="UTF-8" standalone="no"?>
<!-- Generator: Adobe Illustrator 15.0.2, SVG Export Plug-In  -->

<svg
   xmlns:dc="http://purl.org/dc/elements/1.1/"
   xmlns:cc="http://creativecommons.org/ns#"
   xmlns:rdf="http://www.w3.org/1999/02/22-rdf-syntax-ns#"
   xmlns:svg="http://www.w3.org/2000/svg"
   xmlns="http://www.w3.org/2000/svg"
   xmlns:sodipodi="http://sodipodi.sourceforge.net/DTD/sodipodi-0.dtd"
   xmlns:inkscape="http://www.inkscape.org/namespaces/inkscape"
   sodipodi:docname="draw-polygon.svg"
   inkscape:version="0.48.4 r9939"
   id="svg2"
   xml:space="preserve"
   enable-background="new -2.5 -2.5 30 30"
   overflow="visible"
   viewBox="-2.5 -2.5 21 21"
   height="21"
   width="21"
   y="0px"
   x="0px"
   version="1.1"
   style="overflow:visible"><metadata
     id="metadata12"><rdf:RDF><cc:Work
         rdf:about=""><dc:format>image/svg+xml</dc:format><dc:type
           rdf:resource="http://purl.org/dc/dcmitype/StillImage" /><dc:title></dc:title></cc:Work></rdf:RDF></metadata><sodipodi:namedview
     pagecolor="#ffffff"
     bordercolor="#666666"
     borderopacity="1"
     objecttolerance="10"
     gridtolerance="10"
     guidetolerance="10"
     inkscape:pageopacity="0"
     inkscape:pageshadow="2"
     inkscape:window-width="1155"
     inkscape:window-height="1004"
     id="namedview10"
     showgrid="false"
     inkscape:zoom="22.250293"
     inkscape:cx="16.08703"
     inkscape:cy="10.776433"
     inkscape:window-x="956"
     inkscape:window-y="109"
     inkscape:window-maximized="0"
     inkscape:current-layer="svg2" /><defs
     id="defs4" /><g
     id="g6"
     style="fill:#ffffff;fill-opacity:1"
     transform="translate(-4.4044364,-4.2360178)"><path
       d="M 7.552,4.186 C 7.685,3.79 8.047,3.5 8.488,3.5 c 0.553,0 1,0.448 1,1 0,0.552 -0.447,1 -1,1 -0.553,0 -1,-0.448 -1,-1 0,-0.112 0.026,-0.216 0.064,-0.314 z M 4.5,21.5 c -0.553,0 -1,-0.448 -1,-1 0,-0.192 0.069,-0.362 0.163,-0.515 0.003,-0.006 0.007,-0.01 0.011,-0.016 0.054,-0.084 0.113,-0.16 0.189,-0.224 C 3.894,19.717 3.932,19.698 3.967,19.674 4.025,19.637 4.076,19.597 4.142,19.571 4.253,19.527 4.372,19.5 4.5,19.5 c 0.552,0 1,0.448 1,1 0,0.552 -0.448,1 -1,1 z m 0,-3 c -0.204,0 -0.397,0.04 -0.583,0.097 L 6.925,5.732 C 7.291,6.196 7.852,6.5 8.488,6.5 8.596,6.5 8.702,6.485 8.805,6.468 L 5.865,19.047 C 5.508,18.71 5.028,18.5 4.5,18.5 z m 12.539,3 -10.817,0 c 0.172,-0.296 0.278,-0.634 0.278,-1 0,-0.366 -0.106,-0.704 -0.278,-1 l 10.817,0 c -0.173,0.296 -0.279,0.634 -0.279,1 0,0.366 0.106,0.704 0.279,1 z m -3.504,-9.958 c 0,-0.312 0.151,-0.579 0.375,-0.763 0.062,-0.052 0.128,-0.098 0.2,-0.135 0.031,-0.015 0.062,-0.024 0.096,-0.036 0.103,-0.039 0.211,-0.066 0.329,-0.066 0.553,0 1,0.448 1,1 0,0.552 -0.447,1 -1,1 -0.123,0 -0.236,-0.029 -0.345,-0.07 -0.037,-0.014 -0.069,-0.031 -0.104,-0.049 -0.067,-0.035 -0.128,-0.076 -0.185,-0.125 -0.035,-0.029 -0.069,-0.055 -0.101,-0.089 -0.063,-0.071 -0.118,-0.15 -0.16,-0.238 -0.062,-0.13 -0.105,-0.273 -0.105,-0.429 z m 3.584,7.82 -2.754,-5.837 c 0.057,0.004 0.112,0.017 0.17,0.017 0.681,0 1.281,-0.343 1.643,-0.863 l 2.753,5.837 C 18.873,18.512 18.819,18.499 18.76,18.499 18.08,18.5 17.48,18.843 17.119,19.362 z M 18.76,21.5 c -0.552,0 -1,-0.448 -1,-1 0,-0.552 0.448,-1 1,-1 0.123,0 0.236,0.028 0.344,0.069 0.038,0.014 0.07,0.031 0.105,0.05 0.066,0.034 0.126,0.075 0.182,0.123 0.036,0.029 0.071,0.055 0.103,0.089 0.066,0.074 0.124,0.156 0.167,0.248 0.061,0.129 0.1,0.27 0.1,0.421 -10e-4,0.552 -0.449,1 -1.001,1 z M 16.412,10.874 C 16.174,10.208 15.599,9.706 14.889,9.578 L 18.342,5.5 10.21,5.5 c 0.173,-0.295 0.278,-0.634 0.278,-1 0,-0.366 -0.105,-0.705 -0.278,-1 l 8.567,0 c -0.172,0.295 -0.277,0.634 -0.277,1 0,0.982 0.713,1.796 1.646,1.964 z M 20.5,5.5 c -0.553,0 -1,-0.448 -1,-1 0,-0.552 0.447,-1 1,-1 0.552,0 1,0.448 1,1 0,0.552 -0.448,1 -1,1 z"
       id="path8"
       inkscape:connector-curvature="0"
       sodipodi:nodetypes="csssscsscccccssssccsccsccsccscscccssscccccsccsccccsssccccccsccccsccsccsssss"
       style="fill:#ffffff;fill-opacity:1" /></g></svg>