<?xml version="1.0" encoding="UTF-8" standalone="no"?>
<!-- Generator: Adobe Illustrator 15.0.2, SVG Export Plug-In  -->

<svg
   xmlns:dc="http://purl.org/dc/elements/1.1/"
   xmlns:cc="http://creativecommons.org/ns#"
   xmlns:rdf="http://www.w3.org/1999/02/22-rdf-syntax-ns#"
   xmlns:svg="http://www.w3.org/2000/svg"
   xmlns="http://www.w3.org/2000/svg"
   xmlns:sodipodi="http://sodipodi.sourceforge.net/DTD/sodipodi-0.dtd"
   xmlns:inkscape="http://www.inkscape.org/namespaces/inkscape"
   version="1.1"
   x="0px"
   y="0px"
   width="30px"
   height="30px"
   viewBox="-2.5 -2.5 30 30"
   overflow="visible"
   enable-background="new -2.5 -2.5 30 30"
   xml:space="preserve"
   id="svg3100"
   inkscape:version="0.48.4 r9939"
   sodipodi:docname="expand.svg"><metadata
     id="metadata3110"><rdf:RDF><cc:Work
         rdf:about=""><dc:format>image/svg+xml</dc:format><dc:type
           rdf:resource="http://purl.org/dc/dcmitype/StillImage" /></cc:Work></rdf:RDF></metadata><sodipodi:namedview
     pagecolor="#ffffff"
     bordercolor="#666666"
     borderopacity="1"
     objecttolerance="10"
     gridtolerance="10"
     guidetolerance="10"
     inkscape:pageopacity="0"
     inkscape:pageshadow="2"
     inkscape:window-width="753"
     inkscape:window-height="480"
     id="namedview3108"
     showgrid="false"
     inkscape:zoom="7.8666667"
     inkscape:cx="15"
     inkscape:cy="15"
     inkscape:window-x="75"
     inkscape:window-y="34"
     inkscape:window-maximized="0"
     inkscape:current-layer="svg3100" /><defs
     id="defs3102" /><path
     d="M 12.5,25 C 19.404,25 25,19.403 25,12.5 25,5.597 19.404,0 12.5,0 5.598,0 0,5.597 0,12.5 0,19.403 5.598,25 12.5,25 z m 0,-23 C 18.29,2 23,6.71 23,12.5 23,18.29 18.29,23 12.5,23 6.711,23 2,18.29 2,12.5 2,6.71 6.711,2 12.5,2 z"
     id="path3104"
     style="fill:#2980b9;fill-opacity:1"
     inkscape:connector-curvature="0" /><polygon
     points="10.816,6.293 9.402,7.707 14.195,12.5 9.402,17.293 10.816,18.707 17.023,12.5 "
     id="polygon3106"
     style="fill:#2980b9;fill-opacity:1"
     transform="matrix(-1,0,0,-1,25.662288,25)" /></svg>