<?xml version="1.0" encoding="UTF-8" standalone="no"?>
<!-- Generator: Adobe Illustrator 15.0.2, SVG Export Plug-In  -->

<svg
   xmlns:dc="http://purl.org/dc/elements/1.1/"
   xmlns:cc="http://creativecommons.org/ns#"
   xmlns:rdf="http://www.w3.org/1999/02/22-rdf-syntax-ns#"
   xmlns:svg="http://www.w3.org/2000/svg"
   xmlns="http://www.w3.org/2000/svg"
   xmlns:sodipodi="http://sodipodi.sourceforge.net/DTD/sodipodi-0.dtd"
   xmlns:inkscape="http://www.inkscape.org/namespaces/inkscape"
   version="1.1"
   x="0px"
   y="0px"
   width="30px"
   height="30px"
   viewBox="-2.5 -2.5 30 30"
   overflow="visible"
   enable-background="new -2.5 -2.5 30 30"
   xml:space="preserve"
   id="svg3228"
   inkscape:version="0.48.4 r9939"
   sodipodi:docname="Permalink.svg"><metadata
     id="metadata3240"><rdf:RDF><cc:Work
         rdf:about=""><dc:format>image/svg+xml</dc:format><dc:type
           rdf:resource="http://purl.org/dc/dcmitype/StillImage" /></cc:Work></rdf:RDF></metadata><sodipodi:namedview
     pagecolor="#ffffff"
     bordercolor="#666666"
     borderopacity="1"
     objecttolerance="10"
     gridtolerance="10"
     guidetolerance="10"
     inkscape:pageopacity="0"
     inkscape:pageshadow="2"
     inkscape:window-width="753"
     inkscape:window-height="480"
     id="namedview3238"
     showgrid="false"
     inkscape:zoom="7.8666667"
     inkscape:cx="15"
     inkscape:cy="15"
     inkscape:window-x="65"
     inkscape:window-y="24"
     inkscape:window-maximized="0"
     inkscape:current-layer="svg3228" /><defs
     id="defs3230" /><rect
     x="4.64"
     y="11.356"
     transform="matrix(-0.7071 0.7071 -0.7071 -0.7071 30.3222 12.1511)"
     width="16.009"
     height="2"
     id="rect3232"
     style="fill:#2980b9;fill-opacity:1" /><path
     d="M18.305,0c-3.697,0-6.695,2.997-6.695,6.695c0,0.725,0.118,1.421,0.331,2.075l1.706-1.706  c-0.01-0.124-0.037-0.243-0.037-0.369C13.609,4.106,15.715,2,18.305,2C20.894,2,23,4.106,23,6.695c0,2.589-2.106,4.696-4.695,4.696  c-0.166,0-0.322-0.032-0.482-0.049l-1.684,1.683c0.68,0.233,1.406,0.365,2.166,0.365c3.697,0,6.695-2.997,6.695-6.695  S22.002,0,18.305,0z"
     id="path3234"
     style="fill:#2980b9;fill-opacity:1" /><path
     d="M11.342,17.822c0.018,0.16,0.049,0.316,0.049,0.482c0,2.589-2.105,4.695-4.695,4.695C4.106,23,2,20.894,2,18.305  c0-2.59,2.106-4.695,4.695-4.695c0.127,0,0.245,0.027,0.369,0.037l1.706-1.706c-0.653-0.213-1.351-0.332-2.075-0.332  C2.998,11.609,0,14.606,0,18.305C0,22.002,2.998,25,6.695,25c3.698,0,6.695-2.998,6.695-6.695c0-0.76-0.132-1.486-0.365-2.166  L11.342,17.822z"
     id="path3236"
     style="fill:#2980b9;fill-opacity:1" /></svg>